<svg width="1200" height="560" viewBox="0 0 1200 560" fill="none" xmlns="http://www.w3.org/2000/svg">
  <rect width="1200" height="560" rx="20" fill="#0F172A"/>
  <rect x="36" y="36" width="1128" height="488" rx="16" fill="#111827" stroke="#334155" stroke-width="2"/>

  <rect x="72" y="80" width="250" height="160" rx="14" fill="#16A34A"/>
  <rect x="72" y="80" width="250" height="160" rx="14" fill="url(#boardGrid)" opacity="0.22"/>
  <text x="197" y="118" text-anchor="middle" fill="#E2E8F0" font-family="Inter, Arial, sans-serif" font-size="24" font-weight="700">PICO</text>
  <circle cx="120" cy="210" r="10" fill="#F8FAFC"/>
  <circle cx="160" cy="210" r="10" fill="#F8FAFC"/>
  <circle cx="200" cy="210" r="10" fill="#F8FAFC"/>
  <circle cx="240" cy="210" r="10" fill="#F8FAFC"/>

  <text x="94" y="276" fill="#94A3B8" font-family="JetBrains Mono, monospace" font-size="20">GPIO25 OUT</text>
  <line x1="322" y1="160" x2="504" y2="160" stroke="#F59E0B" stroke-width="8" stroke-linecap="round"/>
  <line x1="504" y1="160" x2="564" y2="160" stroke="#FCD34D" stroke-width="8" stroke-linecap="round"/>

  <rect x="564" y="138" width="92" height="44" rx="8" fill="#D97706"/>
  <text x="610" y="166" text-anchor="middle" fill="#FFF7ED" font-family="JetBrains Mono, monospace" font-size="18" font-weight="700">220R</text>

  <line x1="656" y1="160" x2="766" y2="160" stroke="#F59E0B" stroke-width="8" stroke-linecap="round"/>

  <circle cx="834" cy="160" r="46" fill="url(#ledGlow)"/>
  <circle cx="834" cy="160" r="30" fill="#F43F5E"/>
  <rect x="822" y="206" width="8" height="72" rx="3" fill="#94A3B8"/>
  <rect x="842" y="206" width="8" height="72" rx="3" fill="#94A3B8"/>
  <text x="834" y="304" text-anchor="middle" fill="#94A3B8" font-family="Inter, Arial, sans-serif" font-size="20">LED zewnetrzna</text>

  <line x1="850" y1="160" x2="992" y2="160" stroke="#38BDF8" stroke-width="8" stroke-linecap="round"/>

  <rect x="992" y="112" width="128" height="96" rx="48" fill="#BE123C"/>
  <circle cx="1056" cy="160" r="38" fill="#FB7185"/>
  <text x="1056" y="252" text-anchor="middle" fill="#94A3B8" font-family="Inter, Arial, sans-serif" font-size="20">Przycisk GPIO12</text>

  <line x1="1056" y1="208" x2="1056" y2="320" stroke="#94A3B8" stroke-width="6" stroke-linecap="round"/>
  <line x1="322" y1="220" x2="548" y2="220" stroke="#64748B" stroke-width="6" stroke-linecap="round"/>
  <text x="548" y="230" fill="#94A3B8" font-family="JetBrains Mono, monospace" font-size="19">GND</text>

  <text x="80" y="410" fill="#CBD5E1" font-family="Inter, Arial, sans-serif" font-size="24" font-weight="700">Przeplyw sygnalu:</text>
  <text x="80" y="448" fill="#94A3B8" font-family="Inter, Arial, sans-serif" font-size="22">1) GPIO25 wysyla HIGH/LOW</text>
  <text x="80" y="484" fill="#94A3B8" font-family="Inter, Arial, sans-serif" font-size="22">2) Rezystor ogranicza prad LED</text>
  <text x="80" y="520" fill="#94A3B8" font-family="Inter, Arial, sans-serif" font-size="22">3) Przycisk daje sygnal wejsciowy na GPIO12</text>

  <defs>
    <pattern id="boardGrid" width="18" height="18" patternUnits="userSpaceOnUse">
      <circle cx="2" cy="2" r="2" fill="#064E3B"/>
    </pattern>
    <radialGradient id="ledGlow" cx="0" cy="0" r="1" gradientUnits="userSpaceOnUse" gradientTransform="translate(834 160) rotate(90) scale(54)">
      <stop stop-color="#FB7185" stop-opacity="0.9"/>
      <stop offset="1" stop-color="#FB7185" stop-opacity="0"/>
    </radialGradient>
  </defs>
</svg>
